<svg xmlns="http://www.w3.org/2000/svg" viewBox="0 0 64 64" width="64" height="64">
  <rect width="64" height="64" rx="15" fill="#0b8a4a"/>
  <g fill="#fff">
    <g transform="rotate(-24 24 32)">
      <rect x="21.2" y="8" width="2.8" height="17" rx="1.4"/>
      <rect x="15.8" y="8" width="2.8" height="17" rx="1.4"/>
      <rect x="26.6" y="8" width="2.8" height="17" rx="1.4"/>
      <path d="M14.4 23h19.2v3.2c0 5.7-4.3 9.8-9.6 9.8s-9.6-4.1-9.6-9.8V23z"/>
      <rect x="21.2" y="34.5" width="5.6" height="21.5" rx="2.8"/>
    </g>
    <g transform="rotate(24 40 32)">
      <path d="M42.2 8.2c4.6 1.4 7.6 6.6 7.6 12.8 0 7.2-4 13-9.4 14.1v20.4a2.8 2.8 0 0 1-5.6 0V8.2c1.1-.3 2.2-.4 3.4-.4 1.4 0 2.7.1 4 .4z"/>
    </g>
  </g>
</svg>
